<?xml version="1.0" encoding="UTF-8" standalone="no"?>
<svg
   xmlns:dc="http://purl.org/dc/elements/1.1/"
   xmlns:cc="http://creativecommons.org/ns#"
   xmlns:rdf="http://www.w3.org/1999/02/22-rdf-syntax-ns#"
   xmlns:svg="http://www.w3.org/2000/svg"
   xmlns="http://www.w3.org/2000/svg"
   xmlns:sodipodi="http://sodipodi.sourceforge.net/DTD/sodipodi-0.dtd"
   xmlns:inkscape="http://www.inkscape.org/namespaces/inkscape"
   width="210mm"
   height="297mm"
   viewBox="0 0 210 297"
   version="1.1"
   id="svg8"
   sodipodi:docname="unicorn.svg"
   inkscape:version="1.0.2 (e86c870879, 2021-01-15)">
  <defs
     id="defs2" />
  <sodipodi:namedview
     id="base"
     pagecolor="#ffffff"
     bordercolor="#666666"
     borderopacity="1.0"
     inkscape:pageopacity="0.0"
     inkscape:pageshadow="2"
     inkscape:zoom="0.98994949"
     inkscape:cx="528.55544"
     inkscape:cy="470.40609"
     inkscape:document-units="mm"
     inkscape:current-layer="layer1"
     inkscape:document-rotation="0"
     showgrid="false"
     inkscape:window-width="1916"
     inkscape:window-height="1161"
     inkscape:window-x="0"
     inkscape:window-y="757"
     inkscape:window-maximized="1" />
  <metadata
     id="metadata5">
    <rdf:RDF>
      <cc:Work
         rdf:about="">
        <dc:format>image/svg+xml</dc:format>
        <dc:type
           rdf:resource="http://purl.org/dc/dcmitype/StillImage" />
        <dc:title></dc:title>
      </cc:Work>
    </rdf:RDF>
  </metadata>
  <g
     inkscape:label="Layer 1"
     inkscape:groupmode="layer"
     id="layer1">
    <path
       style="fill:#000000;stroke-width:0.21847"
       d="m 98.611748,196.82493 c -0.59186,-0.17961 -0.43254,-1.04796 0.63305,-3.45029 0.24667,-0.55613 0.72972,-1.82005 1.073432,-2.80871 0.34371,-0.98866 0.92306,-2.62193 1.28742,-3.62949 0.76304,-2.10996 1.73853,-5.85302 2.24558,-8.61644 0.19274,-1.05046 0.50117,-2.71882 0.68539,-3.70748 0.51311,-2.75379 0.64169,-14.08384 0.18628,-16.41606 -0.18601,-0.9526 -0.42407,-1.9017 -0.52901,-2.10913 -0.10494,-0.20742 -0.34019,-1.05851 -0.52278,-1.89133 -0.47494,-2.16631 -1.92641,-5.17295 -3.66995,-7.60214 -2.133552,-2.97256 -6.468512,-6.97339 -7.111002,-6.5629 -0.15356,0.0981 -0.99611,0.79438 -1.87233,1.54727 -3.15651,2.71222 -4.28533,3.53387 -6.01883,4.38105 -2.35207,1.14947 -7.54615,2.70005 -9.056647,2.70365 -2.101472,0.005 -7.497528,0.82947 -8.715238,1.33159 -1.380677,0.56931 -3.581228,1.75149 -4.045155,2.17311 -0.180317,0.16389 -1.301261,0.65993 -2.490976,1.10231 -2.190884,0.81466 -5.14476,2.34912 -6.793039,3.5288 -0.853415,0.61079 -1.842549,2.00251 -2.789696,3.92509 -0.643762,1.30675 -2.123582,2.87461 -3.440683,3.64537 -1.094547,0.64053 -1.342575,0.69373 -3.233833,0.69373 -1.789474,0 -2.257118,-0.0876 -3.70012,-0.69278 -2.52598,-1.05945 -4.391426,-2.16793 -5.481694,-3.2573 -0.63685,-0.63635 -1.365055,-1.10637 -2.044985,-1.31997 -0.580772,-0.18243 -1.3439,-0.58801 -1.695847,-0.90127 -0.351939,-0.31325 -0.712108,-0.56956 -0.800372,-0.56956 -0.08826,0 -0.256763,-0.33185 -0.374442,-0.73746 -0.117688,-0.4056 -1.031637,-1.94758 -2.031008,-3.42662 -0.999379,-1.47902 -1.922263,-3.0936 -2.05087,-3.58793 -0.320066,-1.23026 -0.291782,-4.25384 0.05251,-5.6174 0.249899,-0.98958 0.842842,-2.3341 1.52461,-3.45708 0.121124,-0.19952 0.412289,-0.68421 0.64703,-1.07711 0.23475,-0.39289 1.464438,-1.85883 2.732638,-3.25763 1.268209,-1.3988 2.994468,-3.50406 3.836137,-4.67835 0.84167,-1.17429 1.998155,-2.58887 2.569983,-3.14352 0.571821,-0.55464 1.151998,-1.23412 1.289283,-1.50993 0.137285,-0.27582 0.94978,-1.36894 1.805547,-2.42917 0.855759,-1.06023 1.938288,-2.46175 2.405603,-3.1145 0.467315,-0.65275 1.313922,-1.83588 1.881334,-2.62918 0.567421,-0.79329 1.253621,-1.90508 1.524908,-2.47064 0.271286,-0.56555 1.418732,-2.33005 2.549888,-3.9211 3.41769,-4.80723 5.896448,-9.46528 5.786708,-10.87432 -0.06455,-0.82862 -0.06768,-0.83045 -2.794184,-1.62549 -0.760326,-0.22171 -1.394438,-0.66011 -2.389698,-1.652162 -1.177954,-1.17415 -1.354738,-1.45603 -1.354738,-2.16015 0,-0.78505 0.04688,-0.83302 1.535432,-1.57068 3.412119,-1.69092 4.767443,-2.5376 5.686755,-3.55253 1.115918,-1.232 1.911754,-2.22162 1.911754,-2.37727 0,-0.2267 2.210891,-3.393266 2.766662,-3.962585 0.318405,-0.32617 1.21213,-0.912708 1.986049,-1.303417 l 1.407131,-0.71038 -0.299538,-0.6065 c -0.164742,-0.333574 -0.59483,-0.903478 -0.955753,-1.266452 -0.727057,-0.731199 -0.810431,-1.173084 -0.344345,-1.824932 0.171526,-0.239889 0.314913,-0.571626 0.31863,-0.737191 0.0064,-0.294448 -0.799432,-1.137216 -1.101812,-1.152021 -0.08398,-0.0041 -0.848679,-0.483708 -1.69934,-1.065767 -2.149024,-1.470472 -3.241347,-2.781865 -3.556003,-4.26918 -0.282486,-1.335222 -0.800339,-1.862801 -1.828484,-1.862801 -0.409125,0 -1.143865,-0.329912 -1.91759,-0.86104 -1.353952,-0.929424 -3.909548,-3.671632 -3.909548,-4.195023 0,-0.632243 -1.252489,-1.855134 -2.065216,-2.016415 -1.086395,-0.21559 -1.902076,-0.696888 -2.317408,-1.367399 -0.192873,-0.311391 -0.841083,-0.910487 -1.440457,-1.331326 -1.193994,-0.838342 -1.739071,-1.531356 -2.337843,-2.972347 -0.343831,-0.827456 -0.524934,-0.987764 -1.434588,-1.269836 -1.962212,-0.608455 -3.987351,-2.55168 -4.246402,-4.074645 -0.05451,-0.320274 -0.408756,-0.562229 -1.233068,-0.842129 -2.087873,-0.708952 -2.744705,-1.182561 -3.955768,-2.852312 -0.639515,-0.881733 -1.221291,-1.912734 -1.292831,-2.291112 -0.100122,-0.529552 -0.502046,-0.974509 -1.745503,-1.93241 -1.850787,-1.42576 -4.058225,-3.619102 -4.058225,-4.032318 0,-0.154087 -0.29216,-0.596311 -0.649246,-0.982722 -0.4971,-0.537922 -0.633992,-0.868839 -0.584152,-1.412097 l 0.06511,-0.709533 1.274503,0.0658 c 0.700981,0.03619 1.704654,0.20473 2.230384,0.374534 0.525729,0.169803 1.327233,0.374841 1.781116,0.455639 0.921801,0.164093 4.767692,2.108252 5.769608,2.916629 0.402863,0.325043 0.724399,0.850231 0.850059,1.388486 l 0.202106,0.865705 1.593132,0.182238 c 2.421001,0.276939 3.815857,1.212674 5.362955,3.597718 0.344553,0.531178 0.482601,0.569921 1.926647,0.540702 1.363392,-0.02758 1.724171,0.05828 2.921312,0.695271 1.733878,0.922589 2.596582,1.756398 3.353118,3.240825 l 0.60163,1.180479 1.466958,0.123875 c 1.742452,0.147137 3.755878,0.763896 4.646897,1.423458 2.033505,1.505254 3.758246,3.185918 3.868636,3.76977 0.156529,0.827895 0.411574,1.016651 1.554315,1.150336 1.550935,0.18144 2.637229,0.553235 4.238045,1.450511 2.25438,1.26361 3.335239,2.250493 3.755732,3.429199 0.198389,0.556123 0.444627,1.111553 0.547189,1.234291 0.102555,0.122736 0.827564,0.289631 1.611124,0.370874 0.783552,0.08125 1.816939,0.219663 2.296417,0.307596 0.796438,0.146061 0.883377,0.114012 1.006082,-0.370877 0.07386,-0.291914 0.135616,-0.884687 0.137205,-1.317271 0.008,-2.185753 1.516719,-7.026202 3.393854,-10.88901 0.237905,-0.489565 0.43256,-1.099027 0.43256,-1.354355 0,-1.337196 1.191522,-1.818143 2.729319,-1.101662 2.22918,1.03861 2.3851,1.157161 3.66234,2.784397 1.58679,2.021626 2.86024,4.4963 3.2562,6.327714 0.19609,0.906948 0.49342,2.15456 0.66073,2.772475 0.16731,0.617914 0.37771,2.791848 0.46755,4.830965 0.157,3.563615 0.18112,3.710164 0.62148,3.776542 0.32464,0.04893 0.66307,-0.200685 1.16142,-0.856665 1.18823,-1.564067 3.1654,-2.913272 4.9759,-3.395514 1.02718,-0.273597 2.72452,-1.304439 3.22883,-1.960949 0.61198,-0.796687 0.13513,-2.779792 -0.84261,-3.50422 -0.83538,-0.618944 -1.77128,-0.451861 -2.4408,0.435746 -0.87152,1.155407 -1.33697,1.057521 -1.33547,-0.280864 0.003,-2.645063 1.1612,-4.298751 3.44425,-4.917451 1.8783,-0.509016 5.266122,-0.344565 6.458342,0.313495 1.82919,1.009642 2.6321,2.791486 2.25176,4.997174 -0.11721,0.679706 -0.18478,1.268562 -0.15017,1.308572 0.0825,0.0954 1.39344,-0.609731 1.80175,-0.969159 0.17524,-0.154265 0.95993,-0.495967 1.74375,-0.75934 1.23967,-0.416541 1.93257,-0.478856 5.32452,-0.478856 2.14467,0 4.41878,-0.09486 5.05359,-0.210802 0.63481,-0.11594 1.84722,-0.277872 2.69423,-0.359847 1.49354,-0.14455 1.54003,-0.133922 1.54003,0.352089 0,0.275626 -0.33214,0.890017 -0.73807,1.365316 -0.40594,0.475297 -0.80046,1.144788 -0.87669,1.487757 -0.0763,0.342968 -0.37615,1.095157 -0.66645,1.67153 -0.2903,0.576372 -0.48522,1.183051 -0.43316,1.348176 0.0771,0.244528 1.37209,0.285095 6.98046,0.218658 6.33547,-0.07505 6.93086,-0.115453 7.44963,-0.505565 0.72232,-0.543178 1.38022,-0.540547 1.65706,0.0066 0.23427,0.463039 0.15725,4.40621 -0.10749,5.502769 -0.17492,0.724534 0.26711,1.256878 1.04363,1.256878 0.23133,0 0.59071,0.16283 0.7986,0.361848 0.2169,0.207646 0.99347,0.434117 1.82227,0.531437 0.79436,0.09327 2.30096,0.486567 3.34801,0.87398 1.04706,0.387415 2.23081,0.704391 2.63057,0.704391 0.98471,0 2.3886,0.465934 2.52338,0.837483 0.17292,0.476681 -0.51329,2.132062 -1.22597,2.957449 -0.35682,0.413256 -0.62008,0.775387 -0.58502,0.804735 0.0351,0.02935 0.78065,0.444921 1.65687,0.923491 1.23893,0.676675 2.12125,1.428085 3.96851,3.379694 1.30647,1.380258 3.06421,3.13667 3.90608,3.90314 1.34634,1.22575 1.60859,1.37709 2.17764,1.2567 0.35583,-0.0752 0.81695,-0.2996 1.02472,-0.4985 0.93244,-0.89262 1.36313,0.42368 0.6247,1.90924 -0.22336,0.44937 -0.45786,0.98992 -0.5211,1.20123 -0.0633,0.2113 -0.5257,0.6898 -1.02769,1.06333 -1.62782,1.21127 -1.59972,1.12401 -0.64979,2.0178 1.76384,1.6596 2.70305,2.25631 5.84993,3.7166 1.11701,0.518352 3.22599,0.885632 4.61421,0.803582 2.84193,-0.16797 2.61832,-0.23869 2.81407,0.89 0.28101,1.62023 -0.0247,4.49032 -0.55727,5.23098 -1.14406,1.59122 -1.71109,2.20577 -2.62799,2.84821 -0.543,0.38045 -1.10408,0.98562 -1.24685,1.3448 -0.25893,0.65142 -0.25625,0.65484 1.05095,1.34332 2.01689,1.06227 4.15509,2.89011 5.40954,4.62436 0.62573,0.86508 1.29894,1.7751 1.49601,2.02226 0.19706,0.24717 0.99003,1.46053 1.76216,2.69636 0.77212,1.23583 1.8808,2.71823 2.46373,3.2942 0.92203,0.91107 1.21842,1.06821 2.27907,1.2084 1.7642,0.23316 2.78921,-0.14185 3.19488,-1.16888 0.1748,-0.44254 0.31781,-1.34838 0.31781,-2.01299 0,-1.4973 0.24805,-1.54188 1.41001,-0.25343 1.47484,1.63539 1.83368,2.46966 1.85957,4.32339 l 0.0229,1.6391 -1.08342,1.31607 c -1.71682,2.08549 -2.70883,2.50726 -6.5636,2.79071 -5.76437,0.42386 -7.22381,0.58495 -7.68981,0.84877 -0.25318,0.14332 -0.86409,0.26059 -1.35757,0.26059 -0.98104,0 -3.93092,1.31942 -5.8583,2.62028 -1.13227,0.76422 -4.26562,4.04801 -5.75424,6.03052 -0.46398,0.61791 -1.29015,1.62904 -1.83594,2.24695 -0.54579,0.61792 -1.20378,1.51637 -1.46223,1.99657 -0.81756,1.51909 -0.92508,1.6989 -1.25732,2.10259 -0.53995,0.6561 -3.48289,5.3 -3.88662,6.13303 -0.20736,0.42786 -0.43684,0.82848 -0.50994,0.89027 -0.0731,0.0618 -0.47888,0.82036 -0.90168,1.68571 -1.17947,2.41393 -3.55331,5.93327 -5.89361,8.73758 -0.63031,0.75529 -1.4624,1.89213 -1.8491,2.5263 -0.38669,0.63418 -1.14917,1.64531 -1.69442,2.24696 -0.54524,0.60164 -1.17705,1.34669 -1.40402,1.65564 -0.73359,0.99856 -7.1793,7.83933 -7.98986,8.47955 -0.43218,0.34135 -1.02377,0.84815 -1.31465,1.12621 -0.29088,0.27806 -0.59629,0.50557 -0.67869,0.50557 -0.0824,0 -0.58964,0.57115 -1.12721,1.26923 -0.92439,1.20037 -2.29731,2.35516 -3.94203,3.31572 -0.40312,0.23543 -1.2109,0.85299 -1.79505,1.37233 -1.28928,1.14628 -3.20687,2.45771 -3.92971,2.68752 -0.29208,0.0929 -0.77001,0.39814 -1.06209,0.67841 -0.67585,0.6485 -2.96075,1.91048 -3.46024,1.91111 -0.2091,2.3e-4 -0.7433,0.19644 -1.1871,0.43593 -1.87047,1.00941 -4.50359,1.62599 -8.2039,1.92106 -1.98609,0.15838 -4.23241,0.34298 -4.9918,0.41024 -0.759402,0.0673 -1.547992,0.0715 -1.752442,0.009 z"
       id="path38"
       inkscape:export-xdpi="96"
       inkscape:export-ydpi="96" />
  </g>
</svg>
